<?xml version="1.0" encoding="utf-8"?>
<!-- Generator: Adobe Illustrator 27.5.0, SVG Export Plug-In . SVG Version: 6.00 Build 0)  -->
<svg version="1.1" xmlns="http://www.w3.org/2000/svg" xmlns:xlink="http://www.w3.org/1999/xlink" x="0px" y="0px"
	 viewBox="0 0 500 500" style="enable-background:new 0 0 500 500;" xml:space="preserve">
<g id="BACKGROUND">
	<g>
		<g>
			<g>
				<rect x="0.167" y="-0.055" style="fill:#FFFFFF;" width="500" height="500"/>
			</g>
		</g>
	</g>
</g>
<g id="OBJECTS">
	<path style="fill:#CCE0EA;" d="M442.551,205.427c0-81.726-66.252-147.978-147.978-147.978c-64.132,0-118.728,40.8-139.266,97.858
		c-57.057,20.538-97.858,75.134-97.858,139.266c0,81.726,66.252,147.978,147.978,147.978c64.132,0,118.728-40.8,139.266-97.858
		C401.75,324.155,442.551,269.559,442.551,205.427z"/>
	<g>
		<g>
			<path style="fill:#ECB220;" d="M384.207,311.612c0-3.895-72.889-43.497-72.889-43.497l9.333,173.337
				c0,0,12.544,32.438,36.444,44.308c33.333,16.555,57.926-22.884,59.111-37.816S384.207,315.508,384.207,311.612z"/>
			<path style="fill:#ECB220;" d="M115.793,311.612c0,3.895-33.185,121.401-32,136.333c1.185,14.932,25.778,54.371,59.111,37.816
				c23.901-11.87,36.444-44.308,36.444-44.308l9.333-173.337C188.682,268.116,115.793,307.717,115.793,311.612z"/>
		</g>
		<g>
			<g>
				<path style="fill:#ECB220;" d="M353.684,335.808c-0.234-42.191-36.231-76.211-80.401-75.988l-43.155,0.218
					c-47.299,0.239-85.441,37.074-85.186,82.254c0.225,39.892-4.791,157.559-4.791,157.559h219.706L353.684,335.808z"/>
			</g>
			<g>
				<path style="fill:#ECB220;" d="M384.207,311.612c0-3.895-72.889-43.497-72.889-43.497l9.333,173.337
					c0,0,12.544,32.438,36.444,44.308c33.333,16.555,57.926-22.884,59.111-37.816S384.207,315.508,384.207,311.612z"/>
				<path style="fill:#ECB220;" d="M115.793,311.612c0,3.895-33.185,121.401-32,136.333c1.185,14.932,25.778,54.371,59.111,37.816
					c23.901-11.87,36.444-44.308,36.444-44.308l9.333-173.337C188.682,268.116,115.793,307.717,115.793,311.612z"/>
			</g>
			<g>
				<path style="fill:#ECB220;" d="M353.684,335.808c-0.234-42.191-36.231-76.211-80.401-75.988l-43.155,0.218
					c-47.299,0.239-85.441,37.074-85.186,82.254c0.225,39.892-4.791,157.559-4.791,157.559h219.706L353.684,335.808z"/>
			</g>
			<g>
				<path style="fill:#FFFFFF;" d="M186.998,312.421l0.16,0.232h128.281h0.212l0.155-0.145c0.223-0.209,14.987-13.772,36.069-21.751
					c-0.403-0.231-0.806-0.463-1.21-0.694c-19.737,7.667-33.792,20.03-35.434,21.515H187.719
					c-6.57-9.242-23.045-16.569-38.161-21.643c-0.443,0.254-0.886,0.508-1.328,0.762
					C163.609,295.792,180.632,303.202,186.998,312.421z"/>
				<path style="fill:#FFFFFF;" d="M410.353,425.149c0.92,0.563,1.809,1.16,2.67,1.788c-0.107-0.506-0.214-1.011-0.326-1.529
					c-0.587-0.402-1.174-0.802-1.785-1.176c-28.219-17.26-74.258,0.591-76.725,1.57H158.522
					c-23.51-10.979-46.301-10.501-62.546,1.308c-4.627,3.363-8.425,7.498-11.373,12.216c-0.164,1.016-0.304,1.962-0.422,2.843
					c3.021-5.565,7.186-10.381,12.426-14.19c15.944-11.59,38.385-12.01,61.567-1.153l0.108,0.051h176.008l0.203-0.04
					C334.966,426.643,381.961,407.779,410.353,425.149z"/>
				<path style="fill:#FFFFFF;" d="M168.166,390.035l0.14,0.099h164.486l0.137-0.095c0.123-0.083,12.438-8.438,29.768-11.998
					c10.632-2.182,24.662-2.78,39.308,2.887c-0.108-0.425-0.217-0.85-0.326-1.276c-14.626-5.47-28.605-4.846-39.236-2.655
					c-16.53,3.402-28.556,11.119-29.98,12.063H168.648c-23.503-16.6-51.267-13.7-70.626-8.233c-0.102,0.4-0.204,0.799-0.305,1.199
					C116.912,376.499,144.727,373.391,168.166,390.035z"/>
				<path style="fill:#FFFFFF;" d="M110.381,333.395c18.803-2.619,48.855-2.919,61.036,18.543l0.154,0.271h159.868h0.18l0.145-0.108
					c0.336-0.254,30.136-22.273,60.528-8.536c-0.117-0.444-0.234-0.89-0.349-1.329c-29.588-12.801-58.353,7.219-60.679,8.899
					H172.195c-12.476-21.544-42.503-21.434-61.521-18.857C110.578,332.644,110.479,333.021,110.381,333.395z"/>
			</g>
			<path style="fill:#D38A20;" d="M261.217,441.153l-120.541,45.999C140.354,495.084,140.15,500,140.15,500h219.706l-0.415-11.182
				l-2.346-3.057L261.217,441.153z"/>
			<polygon style="fill:#FFFFFF;" points="157.028,480.912 154.213,481.986 348.982,481.986 346.673,480.912 			"/>
			<path style="fill:#A56F62;" d="M295.48,269.597l-90.849,0.092l-0.111-122.039c-0.025-25.087,20.291-45.445,45.378-45.471l0,0
				c25.087-0.026,45.445,20.291,45.471,45.378L295.48,269.597z"/>
			<path style="fill:#7C4942;" d="M292.875,150.423c-0.023-23.013-18.698-41.65-41.711-41.627l-3.589,0.004
				c-13.001,0.013-24.603,5.982-32.235,15.32c-4.292,6.619-6.79,14.508-6.781,22.984l0.059,57.984
				c0.022,21.894,17.009,40.443,38.881,41.417c0.592,0.026,1.188,0.041,1.786,0.043c24.03,0.097,43.667-20.305,43.643-44.335
				L292.875,150.423z"/>
			<path style="fill:none;stroke:#252538;stroke-width:2.5103;stroke-linecap:round;stroke-miterlimit:10;" d="M205.217,221.227
				l-0.645-73.576c-0.025-25.087,20.291-45.445,45.378-45.471l0,0c25.087-0.026,45.445,20.291,45.471,45.378l0.462,110.483"/>
			
				<line style="fill:none;stroke:#252538;stroke-width:2.5103;stroke-linecap:round;stroke-miterlimit:10;" x1="338.847" y1="393.745" x2="335.884" y2="362.042"/>
			<g>
				<path style="fill:#D38A20;" d="M156.147,499.852l3.299-30.498l2.986-0.664l-0.65-2.928l-1.995,0.443l3.271-30.237l13.668-3.739
					l-0.792-2.895l-12.529,3.428l17.338-160.299c-0.997,0.549-2.071,1.14-3.208,1.768l-17.239,159.382l-30.798,8.426
					c-2.923-2.046-9.145-6.745-10.87-9.596c-0.396-6.298,22.096-89.153,38.24-146.669c-1.228,0.695-2.463,1.396-3.7,2.1
					c-3.594,12.854-11.128,39.924-18.452,67.017c-20.492,75.81-19.438,77.708-18.808,78.842c2.327,4.19,11.435,10.474,12.466,11.177
					l0.572,0.391l31.002-8.482l-3.253,30.074l-45.986,10.218c-2.664-3.447-13.673-17.816-15.632-22.389
					c-0.905-5.543,16.412-87.577,30.212-150.359c-1.3,0.825-2.498,1.603-3.571,2.321c-3.445,15.727-8.52,39.067-13.468,62.454
					c-17.541,82.9-16.442,85.538-15.973,86.665c2.274,5.458,16.061,23.151,16.646,23.901l0.583,0.747l46.847-10.411l-3.224,29.811
					H156.147z"/>
				<path style="fill:#D38A20;" d="M209.782,262.486c-1.028,0.246-2.048,0.509-3.061,0.79l-16.152,236.576h3.007L209.782,262.486z"
					/>
				<path style="fill:#D38A20;" d="M376.684,305.632c-1.095-0.713-2.286-1.471-3.561-2.267
					c13.836,62.907,31.343,145.785,30.432,151.358c-1.959,4.573-12.968,18.942-15.632,22.39l-47.467-10.547l-2.78-30.02
					l32.011,8.757l0.572-0.391c1.031-0.703,10.14-6.987,12.467-11.177c0.63-1.134,1.685-3.032-18.808-78.842
					c-7.502-27.754-15.228-55.493-18.71-67.941c-1.24-0.704-2.475-1.403-3.701-2.095c16.161,57.548,38.897,141.256,38.498,147.588
					c-1.722,2.849-7.945,7.549-10.869,9.596l-31.755-8.688l-14.724-159.015c-1.125-0.621-2.183-1.204-3.174-1.75l14.807,159.919
					l-11.592-3.171l-0.791,2.895l12.678,3.468l2.795,30.182l-0.53-0.118l-0.65,2.928l1.471,0.327l2.855,30.834h3.012l-2.792-30.151
					l48.379,10.751l0.583-0.747c0.586-0.75,14.372-18.443,16.646-23.901c0.469-1.126,1.568-3.764-15.973-86.665
					C385.322,345.224,380.13,321.358,376.684,305.632z"/>
				<polygon style="fill:#D38A20;" points="234.805,260.015 228.028,499.852 231.029,499.852 237.807,260 				"/>
				<polygon style="fill:#D38A20;" points="265.653,259.859 262.652,259.874 265.507,499.852 268.508,499.852 				"/>
				<path style="fill:#D38A20;" d="M293.611,262.21c-1.006-0.246-2.019-0.476-3.04-0.685l12.435,238.327h3.004L293.611,262.21z"/>
			</g>
			<g>
				<g>
					<path style="fill:#ECB220;" d="M202.926,234.783l45.778,30.222l0.296,4.296c0,0-29.333,35.259-31.704,35.259
						c-2.37,0-34.963-26.963-34.667-29.63C182.926,272.264,202.926,234.783,202.926,234.783z"/>
					<g>
						<path style="fill:#FFFFFF;" d="M197.117,245.765l44.445,32.377c0.218-0.256,0.438-0.516,0.649-0.765l-44.623-32.507
							C197.433,245.164,197.275,245.464,197.117,245.765z"/>
						<path style="fill:#FFFFFF;" d="M229.455,292.177c0.237-0.268,0.475-0.538,0.713-0.81l-41.154-29.981
							c-0.166,0.327-0.331,0.65-0.493,0.971L229.455,292.177z"/>
					</g>
					<g>
						<path style="fill:#D38A20;" d="M240.487,259.58l-2.531-1.671l-33.577,37.308c0.795,0.644,1.58,1.277,2.342,1.882
							L240.487,259.58z"/>
						<path style="fill:#D38A20;" d="M188.003,281.075c0.693,0.653,1.428,1.335,2.209,2.046l29.155-37.484l-2.512-1.658
							L188.003,281.075z"/>
					</g>
					<path style="fill:none;stroke:#252538;stroke-width:2.5103;stroke-linecap:round;stroke-miterlimit:10;" d="M249,269.301
						c0,0-29.333,35.259-31.704,35.259c-1.809,0-21.228-15.71-30.187-24.333"/>
				</g>
				<g>
					<path style="fill:#ECB220;" d="M297.074,234.783l-45.778,30.222L251,269.301c0,0,29.333,35.259,31.704,35.259
						c2.37,0,34.963-26.963,34.667-29.63C317.074,272.264,297.074,234.783,297.074,234.783z"/>
					<g>
						<path style="fill:#FFFFFF;" d="M258.724,278.479l45.48-30.197c-0.157-0.3-0.312-0.595-0.467-0.89l-45.664,30.319
							C258.286,277.963,258.504,278.221,258.724,278.479z"/>
						<path style="fill:#FFFFFF;" d="M312.142,263.666l-42.093,27.948c0.241,0.274,0.479,0.543,0.718,0.813l41.862-27.795
							C312.47,264.316,312.306,263.991,312.142,263.666z"/>
					</g>
					<path style="fill:#D38A20;" d="M259.262,259.58l2.531-1.671l33.577,37.308c-0.795,0.644-1.58,1.277-2.342,1.882L259.262,259.58
						z"/>
					<path style="fill:#D38A20;" d="M311.746,281.075c-0.693,0.653-1.428,1.335-2.21,2.046l-29.154-37.484l2.511-1.658
						L311.746,281.075z"/>
					<path style="fill:none;stroke:#252538;stroke-width:2.5103;stroke-linecap:round;stroke-miterlimit:10;" d="M251,269.301
						c0,0,29.333,35.259,31.704,35.259c1.809,0,21.228-15.71,30.187-24.333"/>
				</g>
			</g>
		</g>
		<g>
			
				<ellipse transform="matrix(0.006 -1 1 0.006 -85.673 563.2269)" style="fill:#B25719;" cx="240.477" cy="324.708" rx="6.815" ry="6.815"/>
			
				<ellipse transform="matrix(0.9999 -0.015 0.015 0.9999 -5.5408 3.6604)" style="fill:#B25719;" cx="240.477" cy="370.042" rx="6.815" ry="6.815"/>
			
				<ellipse transform="matrix(0.9999 -0.0164 0.0164 0.9999 -7.5202 4.0041)" style="fill:#B25719;" cx="240.477" cy="460.708" rx="6.815" ry="6.815"/>
		</g>
		<path style="fill:none;stroke:#493831;stroke-width:15.0621;stroke-linecap:round;stroke-miterlimit:10;" d="M264.477,39.079
			c113.778,53.333,53.926,167.111,53.926,167.111"/>
		<path style="fill:none;stroke:#493831;stroke-width:15.0621;stroke-linecap:round;stroke-miterlimit:10;" d="M233.394,39.079
			C119.616,92.412,179.468,206.19,179.468,206.19"/>
		<path style="fill:none;stroke:#59443D;stroke-width:15.0621;stroke-linecap:round;stroke-miterlimit:10;" d="M271.588,38.486
			c66.963,21.333,46.222,129.778,45.63,132.148"/>
		<path style="fill:none;stroke:#59443D;stroke-width:15.0621;stroke-linecap:round;stroke-miterlimit:10;" d="M262.106,36.56
			c38.222-3.111,71.111,28.444,78.222,68.445"/>
		<path style="fill:none;stroke:#59443D;stroke-width:15.0621;stroke-linecap:round;stroke-miterlimit:10;" d="M249.662,37.301
			c-72.889,13.037-85.333,72.889-65.778,146.963"/>
		<path style="fill:#3C3C5B;" d="M270.249,220.26c0.471,3.406-5.743,7.078-13.879,8.202c-8.136,1.124-15.112-0.725-15.583-4.131
			c-0.471-3.406,5.743-7.078,13.879-8.202C262.802,215.005,269.779,216.854,270.249,220.26z"/>
		<path style="fill:#8C5C53;" d="M323.304,147.242l-146.585,0.149c-6.413,0.007-11.617-5.187-11.624-11.6v0
			c-0.007-6.413,5.187-11.617,11.6-11.624l146.585-0.149c6.413-0.007,11.617,5.187,11.624,11.6l0,0
			C334.911,142.031,329.717,147.235,323.304,147.242z"/>
		<path style="fill:#7C4942;" d="M175.775,142.469c-3.315-0.455-5.818-3.328-5.822-6.683c-0.004-3.725,3.023-6.758,6.747-6.761
			l146.585-0.149c0.315,0,0.631,0.02,0.939,0.063c3.316,0.455,5.818,3.328,5.821,6.684c0.003,3.725-3.023,6.757-6.747,6.761
			l-146.585,0.149C176.4,142.533,176.084,142.512,175.775,142.469z"/>
		<path style="fill:#A56F62;" d="M250,233.486L250,233.486c-15.671,0-60.846-28.585-60.846-63.847l-3-63.609
			c0-33.806,27.405-61.21,61.21-61.21h5.272c33.806,0,61.211,27.405,61.211,61.21l-3,63.609
			C310.847,204.901,267.884,233.486,250,233.486z"/>
		<path style="fill:#7C4942;" d="M186.697,97.981l127.069,9.769l0.081-1.719c0-13.393-4.314-25.773-11.611-35.851l-105.607,1.597
			C191.439,79.448,187.961,88.366,186.697,97.981z"/>
		<g>
			<path style="fill:#7C4942;" d="M225.727,174.11c0,0,0.876,13.744,17.758,17.177c20.543,4.178,25.592-8.995,25.592-8.995
				l-24.025-3.308L225.727,174.11z"/>
			<g>
				<path style="fill:#8C5C53;" d="M256.98,184.503c-9.569,0-22.531-2.083-34.695-10.852c-1.342-0.968-1.646-2.839-0.677-4.18
					c0.967-1.343,2.84-1.646,4.18-0.678c20.274,14.617,43.841,8.314,44.076,8.249c1.594-0.438,3.244,0.489,3.688,2.08
					c0.444,1.591-0.482,3.241-2.071,3.688C270.982,182.948,265.248,184.503,256.98,184.503z"/>
			</g>
		</g>
		<g>
			<path style="fill:#252538;" d="M286.232,101.783c-3.333-1.111-30.111,3.556-30.111,3.556s0.222,5.444,0.556,6.444
				c0.333,1,24.889-1.333,26.333-1.222c1.445,0.111,18.111,4.111,18.667,3.445C302.232,113.338,289.565,102.894,286.232,101.783z"/>
			<path style="fill:#252538;" d="M213.768,101.783c-3.333,1.111-16,11.556-15.444,12.222c0.555,0.667,17.222-3.333,18.667-3.445
				c1.444-0.111,26,2.222,26.333,1.222c0.333-1,0.555-6.444,0.555-6.444S217.101,100.672,213.768,101.783z"/>
		</g>
		<path style="fill:#6AB400;" d="M306.215,93.894h-112.43V85.98c0-22.466,18.213-40.679,40.679-40.679h31.072
			c22.466,0,40.679,18.213,40.679,40.679V93.894z"/>
		<path style="fill:#478E26;" d="M234.464,45.301c-20.031,0-36.668,14.482-40.043,33.544l98.445-22.994
			c-7.222-6.555-16.81-10.55-27.331-10.55H234.464z"/>
		<path style="fill:none;stroke:#2D2725;stroke-width:15.9902;stroke-linecap:round;stroke-miterlimit:10;" d="M228.773,42.338
			c0,0-44,16.889-48.444,72.889"/>
		<path style="fill:none;stroke:#59443D;stroke-width:15.0621;stroke-linecap:round;stroke-miterlimit:10;" d="M234.995,39.227
			c-28.444-1.778-71.555,21.778-77.778,76.444"/>
		<path style="fill:none;stroke:#2D2725;stroke-width:15.9902;stroke-linecap:round;stroke-miterlimit:10;" d="M268.551,39.671
			c53.778,20.889,52,72.445,52,72.445"/>
		<g>
			<g>
				<path style="fill:#FFFFFF;" d="M291.847,125.853c0,8.085-6.227,12.398-13.908,12.398s-13.907-4.313-13.907-12.398
					c0-8.085,6.227-12.032,13.907-12.032S291.847,117.768,291.847,125.853z"/>
				<g>
					<path style="fill:#252538;" d="M263.493,125.853c-0.217-1.787-0.051-3.674,0.582-5.471c0.646-1.786,1.784-3.455,3.283-4.686
						c1.476-1.266,3.251-2.096,5.049-2.657c1.816-0.527,3.684-0.758,5.532-0.772c1.847,0.028,3.717,0.239,5.529,0.784
						c1.8,0.555,3.568,1.393,5.044,2.656c1.498,1.228,2.634,2.897,3.28,4.68c0.636,1.794,0.802,3.679,0.593,5.466h-1.078
						c-0.232-1.667-0.65-3.26-1.404-4.638c-0.732-1.384-1.769-2.547-3.022-3.42c-2.522-1.743-5.739-2.428-8.943-2.42
						c-1.608,0-3.206,0.168-4.722,0.568c-1.527,0.365-2.952,1.006-4.212,1.863c-1.252,0.87-2.286,2.032-3.019,3.414
						c-0.757,1.375-1.175,2.967-1.415,4.633H263.493z"/>
				</g>
				<path style="fill:#252538;" d="M277.545,115.636c-5.635,0.006-10.198,4.579-10.193,10.214
					c0.006,5.635,4.578,10.198,10.213,10.193c5.635-0.006,10.199-4.579,10.193-10.214
					C287.753,120.194,283.18,115.63,277.545,115.636z"/>
			</g>
		</g>
		<g>
			<g>
				<path style="fill:#FFFFFF;" d="M208.107,125.853c0,8.085,6.227,12.398,13.907,12.398c7.681,0,13.908-4.313,13.908-12.398
					c0-8.085-6.227-12.032-13.908-12.032C214.334,113.821,208.107,117.768,208.107,125.853z"/>
				<g>
					<path style="fill:#252538;" d="M235.383,125.853c-0.24-1.667-0.658-3.258-1.415-4.633c-0.733-1.381-1.767-2.544-3.019-3.414
						c-1.26-0.857-2.685-1.498-4.212-1.863c-1.516-0.401-3.114-0.569-4.722-0.568c-3.204-0.008-6.422,0.678-8.943,2.42
						c-1.253,0.873-2.29,2.035-3.022,3.42c-0.753,1.379-1.171,2.971-1.404,4.638h-1.078c-0.209-1.787-0.043-3.672,0.593-5.466
						c0.646-1.782,1.782-3.452,3.281-4.68c1.476-1.262,3.244-2.101,5.044-2.656c1.812-0.545,3.682-0.756,5.529-0.784
						c1.848,0.013,3.716,0.245,5.532,0.772c1.798,0.561,3.573,1.391,5.049,2.657c1.499,1.231,2.638,2.9,3.283,4.686
						c0.632,1.798,0.799,3.684,0.581,5.471H235.383z"/>
				</g>
				<path style="fill:#252538;" d="M222.409,115.636c5.635,0.006,10.198,4.579,10.193,10.214
					c-0.006,5.635-4.578,10.198-10.213,10.193c-5.635-0.006-10.199-4.579-10.193-10.214
					C212.201,120.194,216.774,115.63,222.409,115.636z"/>
			</g>
		</g>
		<g>
			<path style="fill:#7C4E48;" d="M261.644,165.745l-23.281,0.024c-3.84,0.004-6.955-3.106-6.959-6.945l0,0
				c-0.004-3.84,3.105-6.955,6.945-6.959l23.281-0.024c3.84-0.004,6.955,3.105,6.959,6.945l0,0
				C268.593,162.625,265.483,165.741,261.644,165.745z"/>
			<path style="fill:#8C5C53;" d="M250.037,168.265L250.037,168.265c-4.568,0.005-11.722-3.694-11.726-8.262l5.713-31.547
				c-0.005-4.568,1.396-8.274,5.964-8.279l0,0c4.568-0.005,5.976,3.694,5.981,8.262l5.777,31.547
				C261.751,164.554,254.605,168.26,250.037,168.265z"/>
		</g>
		<path style="fill:none;stroke:#493831;stroke-width:15.0621;stroke-linecap:round;stroke-miterlimit:10;" d="M243.44,45.894
			c-63.111,34.667-50.667,109.333-50.667,109.333"/>
		<path style="fill:none;stroke:#493831;stroke-width:15.0621;stroke-linecap:round;stroke-miterlimit:10;" d="M257.366,43.227
			c52.741,31.407,57.482,86.519,57.482,86.519"/>
		<path style="fill:none;stroke:#59443D;stroke-width:15.0621;stroke-linecap:round;stroke-miterlimit:10;" d="M273.366,106.634
			c0,0,5.333-34.37-13.63-66.963"/>
		<path style="fill:none;stroke:#59443D;stroke-width:15.0621;stroke-linecap:round;stroke-miterlimit:10;" d="M241.958,37.894
			c-23.111,17.778-18.37,56.296-18.37,56.296"/>
		<g>
			<path style="fill:#A56F62;" d="M160.318,416.23l172.025-29.727c0,0,27.186,8.106,21.964,33.658
				c0,0-163.387,54.499-190.993,57.008c-27.607,2.509-39.571-16.981-39.79-23.162c-0.131-3.686,8.34-15.612,15.199-24.636
				C144.005,422.419,151.714,417.717,160.318,416.23z"/>
			<path style="fill:#7C4942;" d="M156.593,417.099l75.746,42.001c12.36-3.733,25.281-7.741,37.897-11.714l-87.662-35.002
				l-22.256,3.846C159.055,416.449,157.813,416.745,156.593,417.099z"/>
			<path style="fill:#A56F62;" d="M332.344,386.503c11.64,0.267,22.131,4.867,28.375,8.289c3.74,2.049,6.587,5.403,8.014,9.421
				l9.225,25.977l-30.518-8L332.344,386.503z"/>
		</g>
		<g>
			<path style="fill:#A56F62;" d="M357.733,416.23l-172.025-29.727c0,0-25.12,6.135-19.898,31.687c0,0,161.321,56.47,188.927,58.979
				c27.607,2.509,39.572-16.981,39.79-23.162c0.13-3.686-8.34-15.612-15.199-24.636C374.046,422.419,366.337,417.717,357.733,416.23
				z"/>
			<g>
				<g>
					<g>
						<path style="fill:#A56F62;" d="M184.082,402.207c21.303-13.825-4.051-40.678-4.051-40.678l-2.307-25.689
							c0,0-18.856-0.929-15.798,25.008c0,0-17.987-18.939-34.534-23.516c-14.225-3.935-23.756,22.792-25.878,42.07
							c-0.87,7.907,15.928,6.772,29.95,23.424C144.596,418.42,172.361,429.382,184.082,402.207z"/>
					</g>
				</g>
				<g>
					<path style="fill:#7C4942;" d="M110.619,348.352c18.839,1.753,36.151,16.286,36.343,16.449
						c0.289,0.245,0.642,0.366,0.993,0.366c0.433,0,0.864-0.183,1.167-0.539c0.549-0.643,0.472-1.61-0.172-2.16
						c-0.796-0.679-17.442-14.68-36.572-17.022C111.769,346.362,111.183,347.332,110.619,348.352z"/>
					<path style="fill:#7C4942;" d="M142.507,376.82c0.434,0,0.864-0.183,1.167-0.539c0.549-0.643,0.472-1.61-0.171-2.16
						c-0.799-0.682-17.571-14.787-36.796-17.048c-0.359,0.978-0.703,1.971-1.029,2.977c18.644,1.963,35.646,16.241,35.836,16.403
						C141.803,376.699,142.156,376.82,142.507,376.82z"/>
					<path style="fill:#7C4942;" d="M137.664,389.381c0.433,0,0.864-0.183,1.167-0.539c0.549-0.643,0.472-1.61-0.172-2.16
						c-0.783-0.667-16.865-14.21-35.577-16.902c-0.218,1.02-0.415,2.034-0.598,3.042c17.985,2.588,34.002,16.035,34.187,16.192
						C136.96,389.26,137.313,389.381,137.664,389.381z"/>
				</g>
			</g>
			<path style="fill:none;stroke:#252538;stroke-width:2.5103;stroke-linecap:round;stroke-miterlimit:10;" d="M259.736,399.402
				l95.111,15.973c0,0,17.778,2.37,28.148,19.556"/>
			
				<line style="fill:none;stroke:#252538;stroke-width:2.5103;stroke-linecap:round;stroke-miterlimit:10;" x1="186.153" y1="424.939" x2="257.366" y2="449.477"/>
		</g>
	</g>
</g>
</svg>
